<svg width="24" height="24" viewBox="0 0 24 24" fill="none" xmlns="http://www.w3.org/2000/svg">
<path d="M1.63453 1.84402C1.83715 1.51877 2.27355 1.40741 2.59594 1.58241C9.07066 4.80177 15.5458 8.02026 22.0201 11.2409C22.2912 11.3647 22.484 11.651 22.5 11.9697V12.0077C22.4906 12.3347 22.2933 12.6308 22.014 12.7545C15.6065 15.9425 9.19781 19.1274 2.78994 22.3145C2.59225 22.4153 2.38225 22.5324 2.15584 22.4917C1.79941 22.4502 1.51477 22.1064 1.5 21.7228V21.6998C1.50205 21.4227 1.64602 21.1916 1.80393 20.9874C3.88998 17.9904 5.97645 14.9937 8.06209 11.9962C5.9301 8.93193 3.79605 5.869 1.66406 2.80475C1.55619 2.66113 1.51559 2.47773 1.5 2.29743V2.27798C1.52297 2.12729 1.54758 1.96953 1.63453 1.84402Z" fill="#030712"/>
</svg>
